PathFileType	4	(X/Y/Z)	c:/Users/goper/Files/vsCode/490R/osim_files/A02/A02_PWS_01.trc
DataRate	CameraRate	NumFrames	NumMarkers	Units                	OrigDataRate	OrigDataStartFrame	OrigNumFrames
250.00	250.00	10	36	mm	250.0	1849	2958
                Frame#	Time	Mobility_markerset:LPSIS			Mobility_markerset:LASIS			Mobility_markerset:LTH1			Mobility_markerset:LTH2			Mobility_markerset:LTH3			Mobility_markerset:LTH4			Mobility_markerset:LLFE			Mobility_markerset:LMFE			Mobility_markerset:LSH1			Mobility_markerset:LSH2			Mobility_markerset:LSH3			Mobility_markerset:LSH4			Mobility_markerset:LLMAL			Mobility_markerset:LMMAL			Mobility_markerset:LCAL			Mobility_markerset:LMTP5			Mobility_markerset:LTOE			Mobility_markerset:LMTP1			Mobility_markerset:RPSIS			Mobility_markerset:RASIS			Mobility_markerset:RTH1			Mobility_markerset:RTH2			Mobility_markerset:RTH3			Mobility_markerset:RTH4			Mobility_markerset:RLFE			Mobility_markerset:RMFE			Mobility_markerset:RSH1			Mobility_markerset:RSH2			Mobility_markerset:RSH3			Mobility_markerset:RSH4			Mobility_markerset:RLMAL			Mobility_markerset:RMMAL			Mobility_markerset:RCAL			Mobility_markerset:RMTP1			Mobility_markerset:RTOE			Mobility_markerset:RMTP5		
		X1	Y1	Z1	X2	Y2	Z2	X3	Y3	Z3	X4	Y4	Z4	X5	Y5	Z5	X6	Y6	Z6	X7	Y7	Z7	X8	Y8	Z8	X9	Y9	Z9	X10	Y10	Z10	X11	Y11	Z11	X12	Y12	Z12	X13	Y13	Z13	X14	Y14	Z14	X15	Y15	Z15	X16	Y16	Z16	X17	Y17	Z17	X18	Y18	Z18	X19	Y19	Z19	X20	Y20	Z20	X21	Y21	Z21	X22	Y22	Z22	X23	Y23	Z23	X24	Y24	Z24	X25	Y25	Z25	X26	Y26	Z26	X27	Y27	Z27	X28	Y28	Z28	X29	Y29	Z29	X30	Y30	Z30	X31	Y31	Z31	X32	Y32	Z32	X33	Y33	Z33	X34	Y34	Z34	X35	Y35	Z35	X36	Y36	Z36

1849	7.39200	-1758.53113	929.15723	325.51349	-1899.04675	884.14001	419.27548	-1745.13245	662.42529	432.34885	0.00000	0.00000	0.00000	-1802.05151	649.44403	453.13712	-1790.64551	605.88885	443.11676	0.00000	0.00000	0.00000	-1746.55237	415.82562	282.19659	-1627.61072	413.21707	386.07538	-1601.13135	377.39145	390.35953	-1673.94995	374.68863	396.84857	-1642.14417	343.10635	399.76248	-1488.81543	151.35616	350.77744	-1506.76025	149.79231	268.50812	-1420.25024	165.67009	303.14600	-1531.92847	48.47182	368.68210	-1586.48376	45.47964	303.03256	-1541.57520	39.46893	255.89680	-1770.88977	940.42828	224.69086	-1928.78735	912.95398	172.31102	-1955.97742	587.76965	152.86407	-1977.71362	549.12183	154.10944	-2011.99438	611.88391	153.07457	-2024.85535	570.41016	152.46574	-2034.02686	450.68912	145.88559	-2053.00342	462.05682	278.49280	-2086.91968	273.26819	169.91248	-2107.33618	232.58710	180.74438	-2142.68677	294.31357	165.89021	-2156.44141	249.57576	173.89211	-2163.85474	86.93950	180.94264	-2175.11499	97.04413	269.80420	-2120.48145	59.83620	228.73140	-2303.09082	95.36098	258.23145	-2320.55127	112.61813	222.72984	-2294.96533	88.63118	167.21446
1850	7.39600	-1764.44836	929.69885	325.47910	-1904.53076	884.75787	419.15729	-1751.17932	662.75299	432.12531	0.00000	0.00000	0.00000	-1808.02173	650.02594	453.28320	-1795.93579	607.25806	443.66110	0.00000	0.00000	0.00000	-1753.03210	416.44318	283.01419	-1633.75439	414.55072	386.37381	-1607.01855	378.96552	390.66379	-1679.82971	375.57690	397.65515	-1647.63904	344.35541	400.46954	-1492.91943	153.69557	351.15521	-1511.11511	151.74951	269.15329	-1425.34521	169.90874	303.31668	-1533.05249	49.10540	368.73260	-1587.37537	45.13667	302.82187	-1542.32520	39.84623	255.88673	-1776.92896	941.13220	224.70535	-1934.46851	913.85229	172.33961	-1960.75183	588.66351	152.41440	-1982.15649	549.89270	153.67015	-2016.84802	612.41364	152.58180	-2029.46765	570.85028	152.02003	-2037.70081	451.02701	145.50804	-2057.42334	462.78854	278.16940	-2089.28296	273.21204	169.68314	-2109.77661	232.51796	180.33232	-2145.21753	293.93222	165.61426	-2158.60156	249.05214	173.69987	-2164.77295	86.58038	180.74333	-2176.06543	96.58026	269.61749	-2121.25269	60.10730	228.67503	-2304.31714	93.72968	258.14545	-2321.73511	110.63077	222.63478	-2295.91113	86.82053	167.10652
1851	7.40000	-1770.38770	930.26837	325.47980	-1910.48804	885.64856	419.01257	-1757.70642	663.04413	431.79135	0.00000	0.00000	0.00000	-1814.14172	650.59119	453.44629	-1802.30237	607.98096	443.54871	0.00000	0.00000	0.00000	-1760.03735	415.54443	284.13287	-1640.34167	415.85635	386.84409	-1613.22290	380.44159	391.04495	-1685.78821	376.42429	398.50653	-1653.38843	345.52524	401.24362	-1497.35181	155.98373	351.55521	-1515.82581	153.72513	269.72290	-1430.69177	174.32773	303.40259	-1534.36755	49.81330	368.72647	-1587.52100	44.55139	302.93564	-1543.26489	40.64792	255.72430	-1782.66345	941.97284	224.72542	-1940.08057	914.77393	172.37032	-1965.52063	589.67413	151.92133	-1986.65747	550.75476	153.22098	-2021.86035	613.06396	152.13663	-2034.05200	571.35181	151.58142	-2041.39136	451.46765	145.20390	-2061.12866	463.17084	277.84531	-2091.57861	273.26993	169.42166	-2111.40503	232.32516	180.36415	-2147.68677	293.55847	165.31178	-2160.68994	248.63014	173.50720	-2165.84570	86.12663	180.55554	-2177.24585	96.39704	269.76706	-2121.81665	60.34526	228.61354	-2305.15601	92.11058	258.02829	-2322.82568	108.84402	222.50323	-2296.78638	85.22504	166.99226
1852	7.40400	-1776.45251	930.94635	325.60297	-1916.37769	886.65186	418.79428	-1763.62341	663.58282	431.82642	0.00000	0.00000	0.00000	-1820.28625	651.16498	453.57297	0.00000	0.00000	0.00000	0.00000	0.00000	0.00000	-1767.00867	416.02600	285.11209	-1647.06519	417.08505	387.26398	-1619.40027	382.01752	391.40872	-1692.06189	377.23904	399.42407	-1659.38135	346.63028	401.95975	-1501.98230	158.31308	351.91461	-1520.77576	155.71729	270.23865	-1436.44226	178.82310	303.51807	-1535.57092	50.64578	368.75470	-1588.37500	44.27734	302.77621	-1544.14233	41.19380	255.56772	-1788.30762	942.86383	224.84758	-1945.73938	915.79565	172.42035	-1970.21472	590.71033	151.42920	-1991.06104	551.66974	152.81779	-2026.62292	613.67889	151.63779	-2038.61267	571.93463	151.10353	-2044.91382	452.03741	144.75220	-2064.87964	463.65759	277.46710	-2093.76294	273.42795	169.20047	-2113.45801	232.35869	179.98468	-2149.99146	293.23071	165.07729	-2162.71777	248.23747	173.25853	-2166.61646	85.82267	180.46326	-2177.97388	96.04374	269.51599	-2122.36182	60.57003	228.57552	-2306.17554	90.77929	257.94589	-2323.84839	107.16251	222.36783	-2297.60938	83.63618	166.93791
1853	7.40800	-1782.44165	931.54688	325.68243	-1922.16370	887.57776	418.71609	-1770.13525	663.75568	431.47974	0.00000	0.00000	0.00000	-1826.53589	651.75116	453.83264	-1815.04724	608.23248	443.99570	0.00000	0.00000	0.00000	-1774.40076	415.67188	286.27814	-1653.89819	418.25656	387.63486	-1626.02307	383.48010	391.77417	-1698.53784	377.93381	400.38156	-1665.51892	347.74597	402.84854	-1506.94983	160.67056	352.29852	-1526.04932	157.68756	270.77145	-1442.67871	183.47122	303.71909	-1537.16382	51.61791	368.75647	-1589.38013	44.07503	302.71909	-1545.15015	42.12269	255.39641	-1793.92419	943.73901	225.02988	-1951.34351	916.81390	172.39949	-1974.90381	591.87592	150.99953	-1995.48975	552.62720	152.38152	-2031.54944	614.39691	151.22598	-2043.13867	572.55078	150.76218	-2048.64575	452.57034	144.54906	-2068.58545	464.19812	277.14508	-2095.95679	273.60983	168.99689	-2115.21729	232.47455	179.74522	-2152.35181	292.98010	164.88655	-2164.64697	247.91962	173.05553	-2167.26392	85.54247	180.43445	-2178.94458	95.88266	269.49884	-2122.84351	60.79874	228.53053	-2306.78784	89.34208	257.92667	-2324.73755	105.62408	222.31746	-2298.29492	82.25838	166.85172
1854	7.41200	-1788.24988	932.25012	325.89352	-1927.86963	888.51727	418.58231	-1776.16223	664.24890	431.60098	0.00000	0.00000	0.00000	-1832.82178	652.34033	454.07733	0.00000	0.00000	0.00000	0.00000	0.00000	0.00000	-1782.06030	415.09372	287.62442	-1661.07495	419.34311	388.08719	-1632.75452	384.85284	392.17184	-1705.64478	378.80334	401.68866	-1671.88696	348.77432	403.65207	-1512.23962	163.02187	352.72406	-1531.52515	159.71095	271.25906	-1449.29297	188.21660	304.00049	-1538.92029	53.10246	369.35208	-1590.52515	43.85256	302.75980	-1546.47400	43.21880	255.21185	-1799.48816	944.63837	225.24022	-1957.04883	917.96204	172.33119	-1979.46460	593.06787	150.57286	-1999.70435	553.67096	151.97339	-2036.23401	615.12848	150.90604	-2047.54712	573.22418	150.33659	-2052.13623	453.15216	144.24155	-2072.15601	464.74612	276.85284	-2098.02344	273.87830	168.80276	-2117.66382	232.38751	179.73161	-2154.61646	292.82709	164.65570	-2166.62427	247.59065	172.90628	-2168.08252	85.34945	180.38770	-2179.58423	95.66518	269.28970	-2123.38159	61.01179	228.54118	-2307.67822	88.19250	257.87097	-2325.70166	104.17567	222.27171	-2298.98804	80.97520	166.80264
1855	7.41600	-1794.02893	932.96509	326.08823	-1933.49280	889.44635	418.20258	-1782.40991	664.56244	431.40002	0.00000	0.00000	0.00000	-1839.03796	653.03821	454.33185	-1827.84021	609.86755	445.08203	0.00000	0.00000	0.00000	-1790.05469	414.49689	289.04953	-1668.58752	420.84088	389.51987	-1639.81763	386.27765	392.51703	-1712.02637	379.24649	402.52527	-1678.43616	349.79300	404.49820	-1517.76965	165.43295	353.25427	-1537.22083	161.85603	271.82825	-1456.07239	193.02232	304.23383	-1540.41077	54.06507	368.93027	-1591.65820	43.62161	302.76987	-1547.93909	44.66875	255.06430	-1805.02307	945.61938	225.48984	-1962.58936	919.03400	172.26158	-1984.01208	594.21924	150.21124	-2003.94592	554.73541	151.64964	-2040.94128	615.91565	150.56004	-2051.95142	573.93842	150.01929	-2055.39990	453.86307	143.77878	-2075.71899	465.35959	276.56088	-2100.14282	274.22925	168.67821	-2119.44531	232.53661	179.58051	-2156.85107	292.74350	164.46365	-2168.51001	247.47116	172.72913	-2168.68530	85.26036	180.32387	-2180.28955	95.44672	269.25601	-2123.85669	61.32512	228.54747	-2308.21045	86.87342	257.88708	-2326.47876	102.83497	222.26320	-2299.73511	79.66925	166.78325
1856	7.42000	-1799.78894	933.77930	326.29932	-1939.28552	890.47174	417.91251	-1789.29541	664.71155	431.24615	0.00000	0.00000	0.00000	-1845.27161	653.64008	454.54242	-1833.86877	610.42535	445.83472	0.00000	0.00000	0.00000	-1798.74670	412.96072	290.75018	-1676.13953	421.81497	389.94138	-1646.97327	387.59174	392.86124	-1719.09180	379.86063	403.65369	-1685.03601	350.73007	405.41345	-1523.40710	167.91406	353.86319	-1543.27319	163.71263	273.02652	-1463.42102	197.92955	304.65302	-1541.98730	55.43154	368.96310	-1593.08569	43.42594	303.02582	-1549.80151	46.36190	254.95255	-1810.41113	946.65338	225.67531	-1968.28613	920.24261	172.15598	-1988.40540	595.43066	149.96414	-2008.08215	555.79156	151.43279	-2045.54297	616.66614	150.23584	-2056.25073	574.63202	149.76578	-2059.02051	454.50360	143.71310	-2079.18677	465.91306	276.35938	-2102.18677	274.60898	168.57994	-2121.17358	232.77452	179.53537	-2159.03589	292.65018	164.39911	-2170.33789	247.31105	172.65515	-2169.28564	85.14774	180.30641	-2181.23315	95.47062	269.51401	-2124.22876	61.60812	228.53682	-2308.95361	85.83332	257.83954	-2327.22925	101.54980	222.19328	-2300.19849	78.70471	166.75600
1857	7.42400	-1805.52710	934.55957	326.46667	-1944.84570	891.31927	417.72238	-1795.65088	664.99091	431.20337	0.00000	0.00000	0.00000	-1851.61243	654.31696	454.83026	0.00000	0.00000	0.00000	0.00000	0.00000	0.00000	-1807.40466	412.04547	292.23389	-1683.83508	422.48236	389.49518	-1654.32617	388.97852	393.26178	-1726.31213	380.38907	404.71658	-1691.96765	351.72229	406.40036	-1529.24268	170.45645	354.59775	-1549.30640	165.78796	273.86557	-1471.05371	203.05797	305.23846	-1543.43042	57.03975	368.98083	-1594.39258	43.27060	303.21039	-1551.83679	48.31764	254.80064	-1815.77856	947.68378	225.91371	-1973.84595	921.36212	172.03951	-1992.77588	596.63837	149.73180	-2012.20386	556.79370	151.17336	-2050.13281	617.43481	150.04153	-2060.43896	575.30713	149.51555	-2062.30664	455.14874	143.58549	-2082.61597	466.49274	276.15283	-2104.15063	274.98788	168.44154	-2122.23608	233.05980	179.56393	-2161.18213	292.62195	164.25183	-2172.16260	247.17720	172.57040	-2169.89771	85.00961	180.26425	-2181.71313	95.21378	269.34653	-2124.60791	61.84840	228.52116	-2309.53003	84.74674	257.78598	-2327.95361	100.35265	222.12515	-2300.72266	77.57362	166.68277
1858	7.42800	-1811.33630	935.32843	326.64856	-1950.51233	892.21771	417.39935	-1802.03625	665.26331	431.13449	0.00000	0.00000	0.00000	-1857.88098	655.00562	455.01370	-1847.70996	611.50146	445.62091	0.00000	0.00000	0.00000	-1815.89478	412.04642	293.48026	-1691.77979	423.37216	389.84686	-1661.91760	390.28928	393.62170	-1733.81274	380.95276	405.81863	-1699.19250	352.71005	407.32797	-1534.80530	173.23213	355.05994	-1555.44263	167.91664	274.88565	-1478.98669	207.93517	305.88870	-1545.15967	58.55278	369.00534	-1595.70300	43.10939	303.56680	-1554.15466	50.54816	254.70657	-1821.15442	948.81689	226.13768	-1979.41138	922.46912	171.89735	-1997.08716	597.82294	149.51831	-2016.27588	557.76581	150.98088	-2054.57788	618.13214	149.87529	-2064.65015	576.00958	149.33041	-2065.56860	455.84042	143.41316	-2086.04077	467.09406	275.98563	-2106.10156	275.34079	168.41129	-2123.83569	233.34537	179.50465	-2163.13354	292.50146	164.14758	-2173.85327	247.07230	172.44057	-2170.37939	84.89841	180.30922	-2182.21973	94.96421	269.22812	-2124.91870	62.08668	228.52780	-2310.08203	83.72131	257.72305	-2328.44751	99.27023	221.97778	-2301.23340	76.63033	166.64774
